<svg width="20" height="20" viewBox="0 0 20 20" fill="none" xmlns="http://www.w3.org/2000/svg">
<g clip-path="url(#clip0_45_82)">
<path d="M0 4.99999V7.22222H20V4.99999C20 4.41062 19.7659 3.84539 19.3491 3.42864C18.9324 3.0119 18.3671 2.77777 17.7778 2.77777H2.22222C1.63285 2.77777 1.06762 3.0119 0.650874 3.42864C0.234126 3.84539 0 4.41062 0 4.99999Z" fill="#0099B5"/>
<path d="M20 15V12.7778H0V15C0 15.5894 0.234126 16.1546 0.650874 16.5713C1.06762 16.9881 1.63285 17.2222 2.22222 17.2222H17.7778C18.3671 17.2222 18.9324 16.9881 19.3491 16.5713C19.7659 16.1546 20 15.5894 20 15Z" fill="#1EB53A"/>
<path d="M0 7.22223H20V8.05556H0V7.22223ZM0 11.9445H20V12.7778H0V11.9445Z" fill="#CE1126"/>
<path d="M0 9.99999V11.9444H20V8.05554H0V9.99999Z" fill="#EEEEEE"/>
<path d="M2.33333 5.08886C2.33338 4.67928 2.47847 4.28294 2.74288 3.97013C3.00728 3.65731 3.37392 3.44824 3.77778 3.37997C3.52916 3.33777 3.27433 3.35033 3.03107 3.41676C2.7878 3.4832 2.56196 3.60191 2.3693 3.76462C2.17665 3.92733 2.02181 4.13012 1.9156 4.35884C1.8094 4.58755 1.75437 4.83669 1.75437 5.08886C1.75437 5.34104 1.8094 5.59017 1.9156 5.81889C2.02181 6.04761 2.17665 6.2504 2.3693 6.41311C2.56196 6.57582 2.7878 6.69453 3.03107 6.76096C3.27433 6.8274 3.52916 6.83995 3.77778 6.79775C3.37392 6.72949 3.00728 6.52041 2.74288 6.2076C2.47847 5.89479 2.33338 5.49845 2.33333 5.08886ZM4.935 6.36831L4.85722 6.12886L4.77945 6.36831H4.52722L4.73111 6.51664L4.65334 6.75609L4.85722 6.60775L5.06056 6.75609L4.98278 6.51664L5.18667 6.36831H4.935ZM6.43611 6.36831L6.35834 6.12886L6.28056 6.36831H6.02889L6.23278 6.51664L6.155 6.75609L6.35834 6.60775L6.56222 6.75609L6.48445 6.51664L6.68834 6.36831H6.43611ZM6.35834 4.7422L6.28056 4.98164H6.02889L6.23278 5.12997L6.155 5.36942L6.35834 5.22109L6.56222 5.36942L6.48445 5.12997L6.68834 4.98164H6.43611L6.35834 4.7422ZM7.93778 6.36831L7.86 6.12886L7.78222 6.36831H7.53056L7.73389 6.51664L7.65611 6.75609L7.86 6.60775L8.06389 6.75609L7.98611 6.51664L8.18945 6.36831H7.93778ZM7.86 4.7422L7.78222 4.98164H7.53056L7.73389 5.12997L7.65611 5.36942L7.86 5.22109L8.06389 5.36942L7.98611 5.12997L8.18945 4.98164H7.93778L7.86 4.7422ZM7.86 3.35553L7.78222 3.59497H7.53056L7.73389 3.74331L7.65611 3.98275L7.86 3.83442L8.06389 3.98275L7.98611 3.74331L8.18945 3.59497H7.93778L7.86 3.35553ZM9.43945 6.36831L9.36167 6.12886L9.28389 6.36831H9.03167L9.23556 6.51664L9.15778 6.75609L9.36167 6.60775L9.565 6.75609L9.48722 6.51664L9.69111 6.36831H9.43945ZM9.36167 4.7422L9.28389 4.98164H9.03167L9.23556 5.12997L9.15778 5.36942L9.36167 5.22109L9.565 5.36942L9.48722 5.12997L9.69111 4.98164H9.43945L9.36167 4.7422ZM9.36167 3.35553L9.28389 3.59497H9.03167L9.23556 3.74331L9.15778 3.98275L9.36167 3.83442L9.565 3.98275L9.48722 3.74331L9.69111 3.59497H9.43945L9.36167 3.35553ZM10.9406 6.36831L10.8628 6.12886L10.785 6.36831H10.5333L10.7372 6.51664L10.6594 6.75609L10.8628 6.60775L11.0667 6.75609L10.9889 6.51664L11.1928 6.36831H10.9406ZM10.8628 4.7422L10.785 4.98164H10.5333L10.7372 5.12997L10.6594 5.36942L10.8628 5.22109L11.0667 5.36942L10.9889 5.12997L11.1928 4.98164H10.9406L10.8628 4.7422ZM10.8628 3.35553L10.785 3.59497H10.5333L10.7372 3.74331L10.6594 3.98275L10.8628 3.83442L11.0667 3.98275L10.9889 3.74331L11.1928 3.59497H10.9406L10.8628 3.35553Z" fill="white"/>
</g>
<defs>
<clipPath id="clip0_45_82">
<rect width="20" height="20" fill="white"/>
</clipPath>
</defs>
</svg>
